<?xml version="1.0" encoding="UTF-8" standalone="no"?>
<svg
   xmlns:dc="http://purl.org/dc/elements/1.1/"
   xmlns:cc="http://creativecommons.org/ns#"
   xmlns:rdf="http://www.w3.org/1999/02/22-rdf-syntax-ns#"
   xmlns:svg="http://www.w3.org/2000/svg"
   xmlns="http://www.w3.org/2000/svg"
   xmlns:sodipodi="http://sodipodi.sourceforge.net/DTD/sodipodi-0.dtd"
   xmlns:inkscape="http://www.inkscape.org/namespaces/inkscape"
   version="1.0"
   width="524.40942"
   height="372.04724"
   id="svg2"
   sodipodi:docname="Carnot-cycle-p-V-diagram_eestikeeles.svg"
   inkscape:version="1.0.2 (1.0.2+r75+1)">
  <metadata
     id="metadata73">
    <rdf:RDF>
      <cc:Work
         rdf:about="">
        <dc:format>image/svg+xml</dc:format>
        <dc:type
           rdf:resource="http://purl.org/dc/dcmitype/StillImage" />
        <dc:title></dc:title>
      </cc:Work>
    </rdf:RDF>
  </metadata>
  <sodipodi:namedview
     pagecolor="#ffffff"
     bordercolor="#666666"
     borderopacity="1"
     objecttolerance="10"
     gridtolerance="10"
     guidetolerance="10"
     inkscape:pageopacity="0"
     inkscape:pageshadow="2"
     inkscape:window-width="1847"
     inkscape:window-height="1019"
     id="namedview71"
     showgrid="false"
     inkscape:zoom="2.3599154"
     inkscape:cx="229.15268"
     inkscape:cy="184.54052"
     inkscape:window-x="67"
     inkscape:window-y="27"
     inkscape:window-maximized="0"
     inkscape:current-layer="svg2" />
  <defs
     id="defs4">
    <marker
       refX="0"
       refY="0"
       orient="auto"
       style="overflow:visible"
       id="Arrow2Mend">
      <path
         d="M 8.7185878,4.0337352 L -2.2072895,0.016013256 L 8.7185884,-4.0017078 C 6.97309,-1.6296469 6.9831476,1.6157441 8.7185878,4.0337352 z "
         transform="scale(-0.6,-0.6)"
         style="font-size:12px;fill-rule:evenodd;stroke-width:0.625;stroke-linejoin:round"
         id="path3297" />
    </marker>
    <marker
       refX="0"
       refY="0"
       orient="auto"
       style="overflow:visible"
       id="TriangleInM">
      <path
         d="M 5.77,0 L -2.88,5 L -2.88,-5 L 5.77,0 z "
         transform="scale(-0.4,-0.4)"
         style="fill-rule:evenodd;stroke:#000000;stroke-width:1pt;marker-start:none"
         id="path3232" />
    </marker>
    <marker
       refX="0"
       refY="0"
       orient="auto"
       style="overflow:visible"
       id="TriangleOutM">
      <path
         d="M 5.77,0 L -2.88,5 L -2.88,-5 L 5.77,0 z "
         transform="scale(0.4,0.4)"
         style="fill-rule:evenodd;stroke:#000000;stroke-width:1pt;marker-start:none"
         id="path3223" />
    </marker>
    <marker
       refX="0"
       refY="0"
       orient="auto"
       style="overflow:visible"
       id="TriangleOutL">
      <path
         d="M 5.77,0 L -2.88,5 L -2.88,-5 L 5.77,0 z "
         transform="scale(0.8,0.8)"
         style="fill-rule:evenodd;stroke:#000000;stroke-width:1pt;marker-start:none"
         id="path3226" />
    </marker>
    <marker
       refX="0"
       refY="0"
       orient="auto"
       style="overflow:visible"
       id="TriangleInL">
      <path
         d="M 5.77,0 L -2.88,5 L -2.88,-5 L 5.77,0 z "
         transform="scale(-0.8,-0.8)"
         style="fill-rule:evenodd;stroke:#000000;stroke-width:1pt;marker-start:none"
         id="path3235" />
    </marker>
    <marker
       refX="0"
       refY="0"
       orient="auto"
       style="overflow:visible"
       id="Arrow2MendI">
      <path
         d="M 8.7185878,4.0337352 L -2.2072895,0.016013256 L 8.7185884,-4.0017078 C 6.97309,-1.6296469 6.9831476,1.6157441 8.7185878,4.0337352 z "
         transform="scale(-0.6,-0.6)"
         style="font-size:12px;fill:#ff0000;fill-rule:evenodd;stroke:#ff0000;stroke-width:0.625;stroke-linejoin:round"
         id="path5681" />
    </marker>
    <marker
       refX="0"
       refY="0"
       orient="auto"
       style="overflow:visible"
       id="Arrow2Mendh">
      <path
         d="M 8.7185878,4.0337352 L -2.2072895,0.016013256 L 8.7185884,-4.0017078 C 6.97309,-1.6296469 6.9831476,1.6157441 8.7185878,4.0337352 z "
         transform="scale(-0.6,-0.6)"
         style="font-size:12px;fill:#0000ff;fill-rule:evenodd;stroke:#0000ff;stroke-width:0.625;stroke-linejoin:round"
         id="path6888" />
    </marker>
  </defs>
  <g
     id="layer1">
    <g
       id="g2218">
      <path
         id="path2160"
         style="fill:#000000;fill-opacity:1;fill-rule:evenodd;stroke:none;stroke-width:1px;stroke-linecap:butt;stroke-linejoin:miter;stroke-opacity:1"
         d="m 34.9375,18.125 v 318.5 0.5 h 0.5 425.1875 v -1 H 35.9375 v -318 z" />
      <path
         d="M 35.433071,13.52354 L 39.433071,20.44354 L 31.433071,20.44354 L 35.433071,13.52354 z "
         style="fill-rule:evenodd;stroke:#000000;stroke-width:0.8pt;marker-start:none"
         id="path2224" />
      <path
         d="M 465.24592,336.61417 L 458.32592,340.61417 L 458.32592,332.61417 L 465.24592,336.61417 z "
         style="fill-rule:evenodd;stroke:#000000;stroke-width:0.8pt;marker-start:none"
         id="path2226" />
    </g>
    <g
       transform="translate(-544.28745,-187.07596)"
       id="g3343">
      <g
         transform="matrix(0.5314961,0,0,-0.5314961,-93.01181,393.30707)"
         style="font-style:normal;font-variant:normal;font-weight:normal;font-stretch:normal;letter-spacing:normal;word-spacing:normal;text-anchor:start;fill:none;fill-opacity:1;stroke:#000000;stroke-linecap:butt;stroke-linejoin:miter;stroke-miterlimit:10.43299961;stroke-dasharray:none;stroke-dashoffset:0;stroke-opacity:1"
         id="g3345"
         xml:space="preserve"><path
           d="M 1230.2,339.92 L 1230.2,339.77 L 1230.2,339.62 L 1230.1,339.48 L 1230.1,339.35 L 1230.1,339.22 L 1230,339.11 L 1230,338.99 L 1230,338.89 L 1229.9,338.79 L 1229.9,338.7 L 1229.8,338.61 L 1229.8,338.53 L 1229.7,338.46 L 1229.7,338.39 L 1229.6,338.32 L 1229.6,338.27 L 1229.5,338.21 L 1229.4,338.16 L 1229.3,338.12 L 1229.3,338.08 L 1229.2,338.04 L 1229.1,338.01 L 1229,337.98 L 1228.8,337.96 L 1228.7,337.94 L 1228.6,337.92 L 1228.5,337.92 L 1228.4,337.91 L 1228.4,337.9 L 1228.3,337.9 L 1228.2,337.89 L 1228.1,337.89 L 1228,337.89 L 1227.9,337.88 L 1227.8,337.88 L 1227.7,337.88 L 1227.7,337.88 L 1227.6,337.88 C 1226.9,337.88 1226.4,337.88 1226.4,336.93 C 1226.4,336.54 1226.7,336.34 1227.1,336.34 C 1228.4,336.34 1229.8,336.48 1231.2,336.48 C 1232.9,336.48 1234.6,336.34 1236.2,336.34 C 1236.4,336.34 1237.1,336.34 1237.1,337.33 C 1237.1,337.88 1236.6,337.88 1235.9,337.88 C 1233.4,337.88 1233.4,338.23 1233.4,338.68 C 1233.4,339.27 1235.5,347.39 1235.8,348.64 C 1236.5,347.2 1237.9,345.45 1240.4,345.45 L 1240.4,346.55 C 1237.1,346.55 1236.4,350.68 1236.4,350.98 C 1236.4,351.08 1236.4,351.18 1236.6,351.78 L 1239,361.54 C 1239.4,362.89 1240.7,364.28 1241.6,365.03 C 1243.3,366.57 1244.8,366.92 1245.6,366.92 C 1247.6,366.92 1248.8,365.18 1248.8,362.24 C 1248.8,359.3 1247.2,353.57 1246.3,351.68 C 1244.6,348.19 1242.2,346.55 1240.4,346.55 L 1240.4,345.45 C 1246.2,345.45 1252.4,352.73 1252.4,360.05 C 1252.4,364.73 1249.6,368.02 1245.8,368.02 C 1243.3,368.02 1240.9,366.22 1239.3,364.28 C 1238.8,366.97 1236.6,368.02 1234.8,368.02 C 1232.5,368.02 1231.5,366.07 1231.1,365.18 C 1230.2,363.48 1229.5,360.5 1229.5,360.35 C 1229.5,359.85 1230,359.85 1230.1,359.85 C 1230.6,359.85 1230.7,359.9 1231,360.99 C 1231.8,364.53 1232.8,366.92 1234.6,366.92 C 1235.5,366.92 1236.2,366.52 1236.2,364.63 C 1236.2,363.48 1236,362.94 1235.8,362.09 L 1230.2,339.92 z "
           style="fill:#000000;stroke-width:0"
           id="path3347" /></g>
    </g>
    <g
       transform="translate(-108.0532,152.37286)"
       id="g3373">
      <g
         transform="matrix(0.5314961,0,0,-0.5314961,-93.01181,393.30707)"
         style="font-style:normal;font-variant:normal;font-weight:normal;font-stretch:normal;letter-spacing:normal;word-spacing:normal;text-anchor:start;fill:none;fill-opacity:1;stroke:#000000;stroke-linecap:butt;stroke-linejoin:miter;stroke-miterlimit:10.43299961;stroke-dasharray:none;stroke-dashoffset:0;stroke-opacity:1"
         id="g3375"
         xml:space="preserve"><path
           d="M 1251.3,374.34 L 1251.5,374.7 L 1251.7,375.03 L 1252,375.34 L 1252.2,375.63 L 1252.4,375.91 L 1252.6,376.16 L 1252.8,376.4 L 1253,376.62 L 1253.3,376.82 L 1253.5,377 L 1253.7,377.18 L 1253.9,377.33 L 1254.1,377.48 L 1254.3,377.61 L 1254.5,377.72 L 1254.7,377.83 L 1254.9,377.93 L 1255.1,378.01 L 1255.3,378.09 L 1255.5,378.15 L 1255.7,378.21 L 1255.9,378.26 L 1256,378.3 L 1256.2,378.34 L 1256.4,378.37 L 1256.6,378.39 L 1257,378.43 L 1257.3,378.46 L 1257.7,378.48 C 1258.3,378.53 1258.3,379.38 1258.3,379.43 C 1258.3,379.82 1258.1,380.02 1257.7,380.02 C 1256.4,380.02 1254.9,379.87 1253.6,379.87 C 1251.9,379.87 1250.2,380.02 1248.6,380.02 C 1248.3,380.02 1247.7,380.02 1247.7,379.07 C 1247.7,378.53 1248.1,378.48 1248.5,378.48 C 1249.8,378.38 1250.8,377.88 1250.8,376.84 C 1250.8,376.09 1250,374.99 1250,374.94 L 1234.8,350.63 L 1231.4,376.98 C 1231.4,377.83 1232.5,378.48 1234.8,378.48 C 1235.5,378.48 1236,378.48 1236,379.47 C 1236,379.92 1235.6,380.02 1235.3,380.02 C 1233.3,380.02 1231.2,379.87 1229.2,379.87 C 1228.3,379.87 1227.3,379.92 1226.4,379.92 C 1225.5,379.92 1224.6,380.02 1223.7,380.02 C 1223.4,380.02 1222.8,380.02 1222.8,379.07 C 1222.8,378.48 1223.2,378.48 1224,378.48 C 1226.8,378.48 1226.9,378.03 1227,376.79 L 1231,346.05 C 1231.1,345.05 1231.3,344.9 1232,344.9 C 1232.8,344.9 1232.9,345.15 1233.3,345.8 L 1251.3,374.34 z "
           style="fill:#000000;stroke-width:0"
           id="path3377" /></g>
    </g>
    <g
       id="g2233">
      <path
         id="path4379"
         style="fill:#000000;fill-opacity:1;fill-rule:evenodd;stroke:none;stroke-width:1px;stroke-linecap:butt;stroke-linejoin:miter;stroke-opacity:1"
         d="m 354.6875,194.84375 -1,0.0937 c 1.66836,17.36601 2.37557,21.19722 5.9375,36 3.99517,18.33916 4.89009,21.76627 10.90625,35.25 l 0.90625,-0.40625 c -6.00544,-13.45969 -6.84956,-16.75911 -10.84375,-35.09375 -3.55989,-14.79432 -4.23913,-18.49064 -5.90625,-35.84375 z" />
      <path
         d="M 361.13744,235.30857 L 355.69252,229.45715 L 363.4903,227.66983 L 361.13744,235.30857 z "
         style="fill-rule:evenodd;stroke:#000000;stroke-width:0.8pt;marker-start:none"
         id="path2239" />
    </g>
    <g
       id="g2225">
      <path
         id="path4389"
         style="fill:#000000;fill-opacity:1;fill-rule:evenodd;stroke:none;stroke-width:1px;stroke-linecap:butt;stroke-linejoin:miter;stroke-opacity:1"
         d="m 71.09375,53.59375 -1,0.125 c 3.03338,23.289494 5.912995,47.07822 11.375,70.40625 v 0.0312 H 81.5 c 13.279672,44.44443 16.864144,50.1508 24.21875,70.90625 l 0.9375,-0.34375 C 99.288576,173.92647 95.70105,168.29338 82.4375,123.90625 h 0.03125 c -5.445377,-23.25701 -8.340832,-47.016954 -11.375,-70.3125 z" />
      <path
         d="M 80.779832,119.56081 L 86.425365,125.21893 L 78.6946,127.27691 L 80.779832,119.56081 z "
         style="fill-rule:evenodd;stroke:#000000;stroke-width:0.8pt;marker-start:none"
         id="path2231" />
    </g>
    <g
       id="g2217">
      <path
         id="path4391"
         style="fill:#000000;fill-opacity:1;fill-rule:evenodd;stroke:none;stroke-width:1px;stroke-linecap:butt;stroke-linejoin:miter;stroke-opacity:1"
         d="m 70.75,53.34375 -0.78125,0.625 c 30.49187,36.546867 90.94834,83.14714 141.9375,106.4375 47.85077,22.02104 115.78043,33.83686 141.90625,35.46875 l 0.0625,-1 C 327.9424,193.25517 259.9598,181.4274 212.3125,159.5 161.5106,136.29518 101.09306,89.71226 70.75,53.34375 Z" />
      <path
         d="M 216.29443,161.87264 L 208.33699,162.62464 L 211.67114,155.35254 L 216.29443,161.87264 z "
         style="fill-rule:evenodd;stroke:#000000;stroke-width:0.8pt;marker-start:none"
         id="path2223" />
    </g>
    <g
       id="g2209">
      <path
         id="path4393"
         style="fill:#000000;fill-opacity:1;fill-rule:evenodd;stroke:none;stroke-width:1px;stroke-linecap:butt;stroke-linejoin:miter;stroke-opacity:1"
         d="m 106.53125,194.1875 -0.46875,0.90625 c 44.45602,24.07243 97.65103,43.47928 141.375,52.84375 46.15044,10.99074 81.27164,16.14734 123.5,18.8125 l 0.0625,-1 c -42.18246,-2.66226 -77.23618,-7.80072 -123.34375,-18.78125 H 247.625 C 204.01571,237.62884 150.89165,218.20816 106.53125,194.1875 Z" />
      <path
         d="M 243.02918,246.44155 L 250.66101,244.06634 L 248.89651,251.86933 L 243.02918,246.44155 z "
         style="fill-rule:evenodd;stroke:#000000;stroke-width:0.8pt;marker-start:none"
         id="path2215" />
    </g>
    <g
       transform="translate(-300.56107,-46.211783)"
       style="fill:#ff0000;fill-opacity:1"
       id="g4420">
      <g
         transform="matrix(0.5314961,0,0,-0.5314961,-93.01181,393.30707)"
         style="font-style:normal;font-variant:normal;font-weight:normal;font-stretch:normal;letter-spacing:normal;word-spacing:normal;text-anchor:start;fill:#ff0000;fill-opacity:1;stroke:#000000;stroke-linecap:butt;stroke-linejoin:miter;stroke-miterlimit:10.43299961;stroke-dasharray:none;stroke-dashoffset:0;stroke-opacity:1"
         id="g4422"
         xml:space="preserve"><path
           d="M 1235.3,376.24 L 1235.3,376.37 L 1235.3,376.49 L 1235.4,376.6 L 1235.4,376.71 L 1235.4,376.82 L 1235.5,376.91 L 1235.5,377.01 L 1235.5,377.09 L 1235.5,377.18 L 1235.6,377.25 L 1235.6,377.33 L 1235.6,377.39 L 1235.7,377.46 L 1235.7,377.52 L 1235.7,377.57 L 1235.7,377.63 L 1235.8,377.67 L 1235.8,377.72 L 1235.8,377.76 L 1235.9,377.8 L 1235.9,377.83 L 1236,377.87 L 1236,377.9 L 1236,377.92 L 1236.1,377.95 L 1236.1,377.97 L 1236.2,377.99 L 1236.2,378.01 L 1236.3,378.03 L 1236.3,378.05 L 1236.4,378.06 L 1236.4,378.08 C 1236.9,378.18 1238.5,378.18 1239.6,378.18 C 1244.6,378.18 1246.8,377.98 1246.8,374.09 C 1246.8,373.35 1246.6,371.41 1246.4,370.11 C 1246.4,369.91 1246.3,369.31 1246.3,369.16 C 1246.3,368.86 1246.4,368.52 1246.9,368.52 C 1247.4,368.52 1247.5,368.91 1247.6,369.66 L 1249,378.33 C 1249,378.53 1249.1,379.03 1249.1,379.18 C 1249.1,379.72 1248.6,379.72 1247.7,379.72 L 1220.1,379.72 C 1218.9,379.72 1218.8,379.67 1218.5,378.73 L 1215.5,369.96 C 1215.4,369.86 1215.2,369.16 1215.2,369.06 C 1215.2,368.77 1215.4,368.52 1215.8,368.52 C 1216.3,368.52 1216.3,368.77 1216.6,369.56 C 1219.3,377.28 1220.6,378.18 1228,378.18 L 1229.9,378.18 C 1231.3,378.18 1231.3,377.98 1231.3,377.58 C 1231.3,377.28 1231.2,376.68 1231.1,376.54 L 1224.5,349.93 C 1224,348.09 1223.9,347.54 1218.5,347.54 C 1216.7,347.54 1216.4,347.54 1216.4,346.6 C 1216.4,346 1217,346 1217.3,346 C 1218.6,346 1220,346.1 1221.4,346.1 C 1222.8,346.1 1224.2,346.15 1225.6,346.15 C 1227,346.15 1228.4,346.1 1229.7,346.1 C 1231.2,346.1 1232.7,346 1234.1,346 C 1234.6,346 1235.2,346 1235.2,347 C 1235.2,347.54 1234.8,347.54 1233.5,347.54 C 1232.2,347.54 1231.6,347.54 1230.3,347.64 C 1228.8,347.79 1228.4,347.94 1228.4,348.74 C 1228.4,348.79 1228.4,349.04 1228.6,349.79 L 1235.3,376.24 z "
           style="fill:#ff0000;fill-opacity:1;stroke-width:0"
           id="path4424" /><path
           d="M 1255.7,361.18 L 1255.7,361.22 L 1255.7,361.26 L 1255.7,361.3 L 1255.7,361.34 L 1255.7,361.38 L 1255.7,361.42 L 1255.7,361.45 L 1255.7,361.49 L 1255.7,361.52 L 1255.7,361.55 L 1255.7,361.59 L 1255.7,361.62 L 1255.7,361.64 L 1255.7,361.67 L 1255.7,361.7 L 1255.7,361.73 L 1255.6,361.75 L 1255.6,361.77 L 1255.6,361.82 L 1255.6,361.86 L 1255.6,361.9 L 1255.6,361.93 L 1255.6,361.96 L 1255.5,361.99 L 1255.5,362.02 L 1255.5,362.04 L 1255.5,362.06 L 1255.4,362.08 L 1255.4,362.09 L 1255.4,362.1 L 1255.3,362.12 L 1255.3,362.12 L 1255.2,362.13 L 1255.2,362.13 L 1255.2,362.14 L 1255.2,362.14 L 1255.1,362.14 L 1255.1,362.14 L 1255.1,362.14 L 1255,362.15 L 1255,362.15 L 1255,362.15 L 1254.9,362.15 L 1254.9,362.15 L 1254.9,362.15 L 1254.8,362.15 L 1254.8,362.15 L 1254.7,362.15 L 1254.7,362.15 L 1254.6,362.15 C 1252.4,359.96 1249.2,359.92 1247.8,359.92 L 1247.8,358.67 C 1248.6,358.67 1250.9,358.67 1252.9,359.64 L 1252.9,341.86 C 1252.9,340.71 1252.9,340.25 1249.4,340.25 L 1248,340.25 L 1248,339 C 1248.7,339.04 1253,339.14 1254.2,339.14 C 1255.3,339.14 1259.7,339.04 1260.5,339 L 1260.5,340.25 L 1259.2,340.25 C 1255.7,340.25 1255.7,340.71 1255.7,341.86 L 1255.7,361.18 z "
           style="fill:#ff0000;fill-opacity:1;stroke-width:0"
           id="path4426" /></g>
    </g>
    <g
       transform="translate(-319.00398,66.791365)"
       style="fill:#0000ff;fill-opacity:1"
       id="g4482">
      <g
         transform="matrix(0.5314961,0,0,-0.5314961,-93.01181,393.30707)"
         style="font-style:normal;font-variant:normal;font-weight:normal;font-stretch:normal;letter-spacing:normal;word-spacing:normal;text-anchor:start;fill:#0000ff;fill-opacity:1;stroke:#000000;stroke-linecap:butt;stroke-linejoin:miter;stroke-miterlimit:10.43299961;stroke-dasharray:none;stroke-dashoffset:0;stroke-opacity:1"
         id="g4484"
         xml:space="preserve"><path
           d="M 1235.3,376.24 L 1235.3,376.37 L 1235.3,376.49 L 1235.4,376.6 L 1235.4,376.71 L 1235.4,376.82 L 1235.5,376.91 L 1235.5,377.01 L 1235.5,377.09 L 1235.5,377.18 L 1235.6,377.25 L 1235.6,377.33 L 1235.6,377.39 L 1235.7,377.46 L 1235.7,377.52 L 1235.7,377.57 L 1235.7,377.63 L 1235.8,377.67 L 1235.8,377.72 L 1235.8,377.76 L 1235.9,377.8 L 1235.9,377.83 L 1236,377.87 L 1236,377.9 L 1236,377.92 L 1236.1,377.95 L 1236.1,377.97 L 1236.2,377.99 L 1236.2,378.01 L 1236.3,378.03 L 1236.3,378.05 L 1236.4,378.06 L 1236.4,378.08 C 1236.9,378.18 1238.5,378.18 1239.6,378.18 C 1244.6,378.18 1246.8,377.98 1246.8,374.09 C 1246.8,373.35 1246.6,371.41 1246.4,370.11 C 1246.4,369.91 1246.3,369.31 1246.3,369.16 C 1246.3,368.86 1246.4,368.52 1246.9,368.52 C 1247.4,368.52 1247.5,368.91 1247.6,369.66 L 1249,378.33 C 1249,378.53 1249.1,379.03 1249.1,379.18 C 1249.1,379.72 1248.6,379.72 1247.7,379.72 L 1220.1,379.72 C 1218.9,379.72 1218.8,379.67 1218.5,378.73 L 1215.5,369.96 C 1215.4,369.86 1215.2,369.16 1215.2,369.06 C 1215.2,368.77 1215.4,368.52 1215.8,368.52 C 1216.3,368.52 1216.3,368.77 1216.6,369.56 C 1219.3,377.28 1220.6,378.18 1228,378.18 L 1229.9,378.18 C 1231.3,378.18 1231.3,377.98 1231.3,377.58 C 1231.3,377.28 1231.2,376.68 1231.1,376.54 L 1224.5,349.93 C 1224,348.09 1223.9,347.54 1218.5,347.54 C 1216.7,347.54 1216.4,347.54 1216.4,346.6 C 1216.4,346 1217,346 1217.3,346 C 1218.6,346 1220,346.1 1221.4,346.1 C 1222.8,346.1 1224.2,346.15 1225.6,346.15 C 1227,346.15 1228.4,346.1 1229.7,346.1 C 1231.2,346.1 1232.7,346 1234.1,346 C 1234.6,346 1235.2,346 1235.2,347 C 1235.2,347.54 1234.8,347.54 1233.5,347.54 C 1232.2,347.54 1231.6,347.54 1230.3,347.64 C 1228.8,347.79 1228.4,347.94 1228.4,348.74 C 1228.4,348.79 1228.4,349.04 1228.6,349.79 L 1235.3,376.24 z "
           style="fill:#0000ff;fill-opacity:1;stroke-width:0"
           id="path4486" /><path
           d="M 1261.6,345.35 L 1260.4,345.35 C 1260.3,344.58 1260,342.52 1259.5,342.17 C 1259.2,341.96 1256.6,341.96 1256.1,341.96 L 1249.7,341.96 C 1253.3,345.21 1254.5,346.18 1256.6,347.82 C 1259.2,349.88 1261.6,352.04 1261.6,355.36 C 1261.6,359.57 1257.9,362.15 1253.4,362.15 C 1249.1,362.15 1246.2,359.12 1246.2,355.91 C 1246.2,354.13 1247.7,353.96 1248,353.96 C 1248.9,353.96 1249.9,354.55 1249.9,355.81 C 1249.9,356.43 1249.7,357.66 1247.8,357.66 C 1248.9,360.13 1251.3,360.9 1252.9,360.9 C 1256.4,360.9 1258.2,358.18 1258.2,355.36 C 1258.2,352.32 1256.1,349.91 1254.9,348.66 L 1246.6,340.36 C 1246.2,340.05 1246.2,339.98 1246.2,339 L 1260.6,339 L 1261.6,345.35 z "
           style="fill:#0000ff;fill-opacity:1;stroke-width:0"
           id="path4488" /></g>
    </g>
    <g
       id="g2220">
      <path
         d="M 190.875,123.84375 L 176.6875,159.25 L 177.625,159.625 L 191.8125,124.1875 L 190.875,123.84375 z "
         style="fill:#ff0000;fill-opacity:1;fill-rule:evenodd;stroke:none;stroke-width:1px;stroke-linecap:butt;stroke-linejoin:miter;stroke-opacity:1"
         id="path4520" />
      <path
         d="M 181.35529,155.49067 L 176.68241,160.68204 L 176.87886,153.7001 C 177.81134,155.20107 179.62154,155.91865 181.35529,155.49067 z "
         style="font-size:12px;fill:#ff0000;fill-rule:evenodd;stroke:#ff0000;stroke-width:0.375;stroke-linejoin:round"
         id="path2227" />
    </g>
    <g
       id="g2229">
      <path
         d="M 162.53125,201.8125 L 148.34375,244.34375 L 149.28125,244.65625 L 163.46875,202.125 L 162.53125,201.8125 z "
         style="fill:#0000ff;fill-opacity:1;fill-rule:evenodd;stroke:none;stroke-width:1px;stroke-linecap:butt;stroke-linejoin:miter;stroke-opacity:1"
         id="path4522" />
      <path
         d="M 152.76918,240.29083 L 148.40921,245.74764 L 148.19532,238.76621 C 149.21434,240.20983 151.06356,240.81988 152.76918,240.29083 z "
         style="font-size:12px;fill:#0000ff;fill-rule:evenodd;stroke:#0000ff;stroke-width:0.375;stroke-linejoin:round"
         id="path2236" />
    </g>
    <g
       transform="translate(-417.18902,60.831524)"
       style="fill:#0000ff;fill-opacity:1"
       id="g4562">
      <g
         transform="matrix(0.5314961,0,0,-0.5314961,-93.01181,393.30707)"
         style="font-style:normal;font-variant:normal;font-weight:normal;font-stretch:normal;letter-spacing:normal;word-spacing:normal;text-anchor:start;fill:#0000ff;fill-opacity:1;stroke:#000000;stroke-linecap:butt;stroke-linejoin:miter;stroke-miterlimit:10.43299961;stroke-dasharray:none;stroke-dashoffset:0;stroke-opacity:1"
         id="g4564"
         xml:space="preserve"><path
           d="M 1230.8,346.3 L 1231.5,346.59 L 1232.3,346.92 L 1233,347.28 L 1233.7,347.67 L 1234.4,348.09 L 1235.1,348.54 L 1235.8,349.03 L 1236.4,349.53 L 1237.1,350.07 L 1237.7,350.63 L 1238.4,351.22 L 1239,351.83 L 1239.6,352.47 L 1240.1,353.13 L 1240.7,353.81 L 1241.2,354.51 L 1241.7,355.23 L 1242.2,355.96 L 1242.7,356.72 L 1243.1,357.49 L 1243.5,358.28 L 1243.9,359.08 L 1244.3,359.9 L 1244.6,360.73 L 1244.9,361.57 L 1245.1,362.42 L 1245.4,363.29 L 1245.5,364.16 L 1245.7,365.04 L 1245.8,365.93 L 1245.8,366.82 L 1245.9,367.72 C 1245.9,375.74 1240.6,381.12 1233.2,381.12 L 1232.9,379.87 C 1237.8,379.87 1241.5,375.99 1241.5,369.31 C 1241.5,364.33 1238.9,352.68 1230.6,347.99 C 1230.3,349.73 1229.8,353.37 1226.2,353.37 C 1223.6,353.37 1221.1,350.88 1221.1,348.29 L 1222.2,348.29 C 1222.2,350.29 1224.1,352.28 1226.2,352.28 C 1228.3,352.28 1229.2,351.08 1229.2,348.04 C 1229.2,347.3 1229.2,347.25 1228.7,347.05 C 1227.4,346.5 1225.9,346.15 1224.5,346.15 L 1224.5,346.15 C 1223.8,346.15 1222.2,346.15 1222.2,348.29 L 1221.1,348.29 C 1221.1,347.3 1221.4,346.75 1221.4,346.7 L 1221.4,346.7 C 1217.5,348.24 1215.8,352.13 1215.8,356.61 C 1215.8,360.05 1217.1,367.12 1220.9,372.5 C 1224.5,377.58 1229.2,379.87 1232.9,379.87 L 1233.2,381.12 C 1222.4,381.12 1211.4,369.81 1211.4,358.2 C 1211.4,349.93 1217,344.9 1224.2,344.9 C 1225.4,344.9 1227.1,345.1 1229.1,345.65 C 1228.9,342.56 1228.9,342.46 1228.9,341.82 C 1228.9,340.22 1228.9,336.34 1233,336.34 C 1238.9,336.34 1241.3,345.45 1241.3,346 C 1241.3,346.35 1241,346.5 1240.8,346.5 C 1240.4,346.5 1240.3,346.25 1240.2,345.95 C 1239,342.41 1236.1,341.17 1234.4,341.17 C 1232.1,341.17 1231.3,342.51 1230.8,346.3 z "
           style="fill:#0000ff;fill-opacity:1;stroke-width:0"
           id="path4566" /><path
           d="M 1266.6,345.35 L 1265.4,345.35 C 1265.3,344.58 1265,342.52 1264.5,342.17 C 1264.2,341.96 1261.6,341.96 1261.1,341.96 L 1254.7,341.96 C 1258.3,345.21 1259.5,346.18 1261.6,347.82 C 1264.2,349.88 1266.6,352.04 1266.6,355.36 C 1266.6,359.57 1262.9,362.15 1258.4,362.15 C 1254.1,362.15 1251.2,359.12 1251.2,355.91 C 1251.2,354.13 1252.7,353.96 1253,353.96 C 1253.9,353.96 1254.9,354.55 1254.9,355.81 C 1254.9,356.43 1254.7,357.66 1252.8,357.66 C 1253.9,360.13 1256.3,360.9 1257.9,360.9 C 1261.4,360.9 1263.2,358.18 1263.2,355.36 C 1263.2,352.32 1261.1,349.91 1259.9,348.66 L 1251.6,340.36 C 1251.2,340.05 1251.2,339.98 1251.2,339 L 1265.6,339 L 1266.6,345.35 z "
           style="fill:#0000ff;fill-opacity:1;stroke-width:0"
           id="path4568" /></g>
    </g>
    <g
       transform="translate(-366.99808,-95.073988)"
       style="fill:#ff0000;fill-opacity:1;stroke:none;stroke-opacity:1"
       id="g4648">
      <g
         transform="matrix(0.5314961,0,0,-0.5314961,-93.01181,393.30707)"
         style="font-style:normal;font-variant:normal;font-weight:normal;font-stretch:normal;letter-spacing:normal;word-spacing:normal;text-anchor:start;fill:#ff0000;fill-opacity:1;stroke:none;stroke-linecap:butt;stroke-linejoin:miter;stroke-miterlimit:10.43299961;stroke-dasharray:none;stroke-dashoffset:0;stroke-opacity:1"
         id="g4650"
         xml:space="preserve"><path
           d="M 1230.8,346.3 L 1231.5,346.59 L 1232.3,346.92 L 1233,347.28 L 1233.7,347.67 L 1234.4,348.09 L 1235.1,348.54 L 1235.8,349.03 L 1236.4,349.53 L 1237.1,350.07 L 1237.7,350.63 L 1238.4,351.22 L 1239,351.83 L 1239.6,352.47 L 1240.1,353.13 L 1240.7,353.81 L 1241.2,354.51 L 1241.7,355.23 L 1242.2,355.96 L 1242.7,356.72 L 1243.1,357.49 L 1243.5,358.28 L 1243.9,359.08 L 1244.3,359.9 L 1244.6,360.73 L 1244.9,361.57 L 1245.1,362.42 L 1245.4,363.29 L 1245.5,364.16 L 1245.7,365.04 L 1245.8,365.93 L 1245.8,366.82 L 1245.9,367.72 C 1245.9,375.74 1240.6,381.12 1233.2,381.12 L 1232.9,379.87 C 1237.8,379.87 1241.5,375.99 1241.5,369.31 C 1241.5,364.33 1238.9,352.68 1230.6,347.99 C 1230.3,349.73 1229.8,353.37 1226.2,353.37 C 1223.6,353.37 1221.1,350.88 1221.1,348.29 L 1222.2,348.29 C 1222.2,350.29 1224.1,352.28 1226.2,352.28 C 1228.3,352.28 1229.2,351.08 1229.2,348.04 C 1229.2,347.3 1229.2,347.25 1228.7,347.05 C 1227.4,346.5 1225.9,346.15 1224.5,346.15 L 1224.5,346.15 C 1223.8,346.15 1222.2,346.15 1222.2,348.29 L 1221.1,348.29 C 1221.1,347.3 1221.4,346.75 1221.4,346.7 L 1221.4,346.7 C 1217.5,348.24 1215.8,352.13 1215.8,356.61 C 1215.8,360.05 1217.1,367.12 1220.9,372.5 C 1224.5,377.58 1229.2,379.87 1232.9,379.87 L 1233.2,381.12 C 1222.4,381.12 1211.4,369.81 1211.4,358.2 C 1211.4,349.93 1217,344.9 1224.2,344.9 C 1225.4,344.9 1227.1,345.1 1229.1,345.65 C 1228.9,342.56 1228.9,342.46 1228.9,341.82 C 1228.9,340.22 1228.9,336.34 1233,336.34 C 1238.9,336.34 1241.3,345.45 1241.3,346 C 1241.3,346.35 1241,346.5 1240.8,346.5 C 1240.4,346.5 1240.3,346.25 1240.2,345.95 C 1239,342.41 1236.1,341.17 1234.4,341.17 C 1232.1,341.17 1231.3,342.51 1230.8,346.3 z "
           style="fill:#ff0000;fill-opacity:1;stroke:none;stroke-width:0;stroke-opacity:1"
           id="path4652" /><path
           d="M 1260.7,361.18 L 1260.7,361.22 L 1260.7,361.26 L 1260.7,361.3 L 1260.7,361.34 L 1260.7,361.38 L 1260.7,361.42 L 1260.7,361.45 L 1260.7,361.49 L 1260.7,361.52 L 1260.7,361.55 L 1260.7,361.59 L 1260.7,361.62 L 1260.7,361.64 L 1260.7,361.67 L 1260.7,361.7 L 1260.7,361.73 L 1260.6,361.75 L 1260.6,361.77 L 1260.6,361.82 L 1260.6,361.86 L 1260.6,361.9 L 1260.6,361.93 L 1260.6,361.96 L 1260.5,361.99 L 1260.5,362.02 L 1260.5,362.04 L 1260.5,362.06 L 1260.4,362.08 L 1260.4,362.09 L 1260.4,362.1 L 1260.3,362.12 L 1260.3,362.12 L 1260.2,362.13 L 1260.2,362.13 L 1260.2,362.14 L 1260.2,362.14 L 1260.1,362.14 L 1260.1,362.14 L 1260.1,362.14 L 1260,362.15 L 1260,362.15 L 1260,362.15 L 1259.9,362.15 L 1259.9,362.15 L 1259.9,362.15 L 1259.8,362.15 L 1259.8,362.15 L 1259.7,362.15 L 1259.7,362.15 L 1259.6,362.15 C 1257.4,359.96 1254.2,359.92 1252.8,359.92 L 1252.8,358.67 C 1253.6,358.67 1255.9,358.67 1257.9,359.64 L 1257.9,341.86 C 1257.9,340.71 1257.9,340.25 1254.4,340.25 L 1253,340.25 L 1253,339 C 1253.7,339.04 1258,339.14 1259.2,339.14 C 1260.3,339.14 1264.7,339.04 1265.5,339 L 1265.5,340.25 L 1264.2,340.25 C 1260.7,340.25 1260.7,340.71 1260.7,341.86 L 1260.7,361.18 z "
           style="fill:#ff0000;fill-opacity:1;stroke:none;stroke-width:0;stroke-opacity:1"
           id="path4654" /></g>
    </g>
    <path
       id="text7958"
       style="font-size:24px;font-style:normal;font-variant:normal;font-weight:normal;font-stretch:normal;text-align:start;line-height:125%;writing-mode:lr-tb;text-anchor:start;fill:#000000;fill-opacity:1;stroke:none;stroke-width:1px;stroke-linecap:butt;stroke-linejoin:miter;stroke-opacity:1;font-family:Bitstream Charter"
       d="m 55.742188,46.443359 c -0.05477,0.02814 -0.112771,0.04871 -0.166016,0.08008 -0.160384,0.09448 2.24e-4,0.08693 0.236328,0.04297 -0.0327,-0.05173 -0.04456,-0.08018 -0.07031,-0.123047 z m -1.326172,5.712891 c -0.0355,0.02761 -0.08714,0.06423 -0.0625,0.05273 0.03272,-0.01526 0.06629,-0.03226 0.09961,-0.04883 z" />
    <path
       id="text7962"
       style="font-size:24px;font-style:normal;font-variant:normal;font-weight:normal;font-stretch:normal;text-align:start;line-height:125%;writing-mode:lr-tb;text-anchor:start;fill:#000000;fill-opacity:1;stroke:none;stroke-width:1px;stroke-linecap:butt;stroke-linejoin:miter;stroke-opacity:1;font-family:Bitstream Charter"
       d="m 371.75,192.82812 c -0.0234,0.0163 -0.0469,0.019 -0.0703,0.0273 0.025,-0.004 0.0475,-0.01 0.0723,-0.0137 -0.001,-0.004 -8.3e-4,-0.009 -0.002,-0.0137 z" />
    <path
       id="text7966"
       style="font-size:24px;font-style:normal;font-variant:normal;font-weight:normal;font-stretch:normal;text-align:start;line-height:125%;writing-mode:lr-tb;text-anchor:start;fill:#000000;fill-opacity:1;stroke:none;stroke-width:1px;stroke-linecap:butt;stroke-linejoin:miter;stroke-opacity:1;font-family:Bitstream Charter"
       d="m 383.81055,267.73242 c -0.5607,0.0199 -1.09955,0.0801 -1.61328,0.1836 0.28716,-10e-6 0.574,10e-6 0.86132,0 0.17505,0 0.35035,0.002 0.52539,0.002 0.0641,-0.07 0.15547,-0.13603 0.22657,-0.18555 z m 4.18359,0.95313 c -0.0476,-0.093 0.0273,0.0881 0.1543,0.3789 0.007,0.004 0.0144,0.008 0.0215,0.0117 -0.0628,-0.13818 -0.14687,-0.33416 -0.17578,-0.39062 z m 0.82422,0.9082 c -0.0154,-0.003 -0.0209,0.009 -0.0293,0.0176 0.009,0.01 0.0168,0.0195 0.0254,0.0293 0.0373,0.0226 0.0862,0.04 0.13282,0.0586 v -0.0117 c -0.0484,-0.0421 -0.0989,-0.0872 -0.12891,-0.0937 z" />
    <path
       id="text7970"
       style="font-size:24px;font-style:normal;font-variant:normal;font-weight:normal;font-stretch:normal;text-align:start;line-height:125%;writing-mode:lr-tb;text-anchor:start;fill:#000000;fill-opacity:1;stroke:none;stroke-width:1px;stroke-linecap:butt;stroke-linejoin:miter;stroke-opacity:1;font-family:Bitstream Charter"
       d="m 93.671875,208.91992 c -0.01093,0.008 -0.01824,0.0151 -0.0293,0.0234 -0.01219,0.18496 -0.01934,0.33672 -0.0293,0.50586 0.0026,-4.8e-4 0.0052,-9.5e-4 0.0078,-0.002 0.0156,-0.16248 0.02847,-0.30411 0.05078,-0.52735 z m 1.423828,0.10352 c -0.03585,0.0179 -0.07668,0.0269 -0.111328,0.0469 -0.0053,0.003 -0.0038,0.005 -0.0078,0.008 0.04034,-0.0151 0.079,-0.035 0.119141,-0.0508 -10e-7,-0.001 10e-7,-0.003 0,-0.004 z" />
  </g>
  <text
     xml:space="preserve"
     style="font-style:normal;font-variant:normal;font-weight:normal;font-stretch:normal;font-size:40px;line-height:1.25;font-family:sans-serif;-inkscape-font-specification:sans-serif;fill:#000000;fill-opacity:1;stroke:none"
     x="-199.55453"
     y="48.229027"
     id="text1080"
     transform="rotate(-100)"><tspan
       sodipodi:role="line"
       id="tspan1078"
       x="-199.55453"
       y="48.229027"
       style="font-style:normal;font-variant:normal;font-weight:normal;font-stretch:normal;font-size:17.3333px;font-family:sans-serif;-inkscape-font-specification:sans-serif;fill:#999999;fill-opacity:1">kokkusurumine</tspan></text>
  <text
     xml:space="preserve"
     style="font-style:normal;font-weight:normal;font-size:17.3333px;line-height:1.25;font-family:sans-serif;fill:#999999;fill-opacity:1;stroke:none"
     x="234.43222"
     y="121.28047"
     id="text1084"
     transform="rotate(15)"><tspan
       sodipodi:role="line"
       id="tspan1082"
       x="234.43222"
       y="121.28047">kuumutamine</tspan></text>
  <text
     xml:space="preserve"
     style="font-style:normal;font-weight:normal;font-size:17.3333px;line-height:1.25;font-family:sans-serif;fill:#999999;fill-opacity:1;stroke:none"
     x="275.38837"
     y="-300.36002"
     id="text1088"
     transform="rotate(75)"><tspan
       sodipodi:role="line"
       id="tspan1086"
       x="275.38837"
       y="-300.36002">paisumine</tspan></text>
  <text
     xml:space="preserve"
     style="font-style:normal;font-weight:normal;font-size:17.3333px;line-height:1.25;font-family:sans-serif;fill:#999999;fill-opacity:1;stroke:none"
     x="241.87527"
     y="166.13145"
     id="text1092"
     transform="rotate(15)"><tspan
       sodipodi:role="line"
       id="tspan1090"
       x="241.87527"
       y="166.13145">jahutamine</tspan></text>
</svg>
